# xmcd
# 
# Track frame offsets:
#     150
#     11067
#     26750
#     38993
#     60944
#     76178
#     94489
#     114156
#     134832
#     152456
#     169043
#     186015
#     203673
#     237054
#     254600
# 
# Disc length: 3608
# 
# Revision: 1
# Processed by: cddbd v1.5.2PL0 Copyright (c) Steve Scherf et al.
# Submitted via: fre:ac v1.0.31
# 
DISCID=bd0e160f
DTITLE=Emmylou Harris - Cowboy Angels
DYEAR=2012
DGENRE=Country
TTITLE0=Cash On The Barrel Head
TTITLE1=That's All I Took
TTITLE2=Feelin' Single,Seein' Double
TTITLE3=Coat Of Many Colors
TTITLE4=Amarillo
TTITLE5=Together Again
TTITLE6=Return Of The Grievous Angel
TTITLE7=Bluebird Wine
TTITLE8=Tonight The Bottle Let Me Down
TTITLE9=Boulder To Birmingham
TTITLE10=Cry One More Time
TTITLE11=Ooh Las Vegas
TTITLE12=Shop Around
TTITLE13=Hickory Wind
TTITLE14=Jambalaya
EXTD=
EXTT0=
EXTT1=
EXTT2=
EXTT3=
EXTT4=
EXTT5=
EXTT6=
EXTT7=
EXTT8=
EXTT9=
EXTT10=
EXTT11=
EXTT12=
EXTT13=
EXTT14=
PLAYORDER=
